<svg width="24" height="24" viewBox="0 0 24 24" fill="none" xmlns="http://www.w3.org/2000/svg">
<path d="M12.0001 22.4035C6.29555 22.4035 1.65527 17.7632 1.65527 12.0587C1.65527 6.35414 6.29555 1.71387 12.0001 1.71387C17.7047 1.71387 22.3449 6.35414 22.3449 12.0587C22.3449 17.7632 17.7047 22.4035 12.0001 22.4035ZM12.0001 3.36904C7.20838 3.36904 3.31045 7.26697 3.31045 12.0587C3.31045 16.8504 7.20838 20.7484 12.0001 20.7484C16.7918 20.7484 20.6898 16.8496 20.6898 12.0587C20.6898 7.2678 16.7918 3.36904 12.0001 3.36904Z" fill="#101828"/>
<path d="M11.9999 17.8518C11.7805 17.8518 11.57 17.7646 11.4148 17.6094C11.2596 17.4542 11.1724 17.2437 11.1724 17.0242V7.09321C11.1724 6.87372 11.2596 6.66322 11.4148 6.50802C11.57 6.35282 11.7805 6.26562 11.9999 6.26562C12.2194 6.26562 12.4299 6.35282 12.5851 6.50802C12.7403 6.66322 12.8275 6.87372 12.8275 7.09321V17.0242C12.8275 17.2437 12.7403 17.4542 12.5851 17.6094C12.4299 17.7646 12.2194 17.8518 11.9999 17.8518Z" fill="#101828"/>
<path d="M16.9654 12.8866H7.03437C6.81488 12.8866 6.60438 12.7994 6.44918 12.6442C6.29398 12.489 6.20679 12.2785 6.20679 12.059C6.20679 11.8395 6.29398 11.629 6.44918 11.4738C6.60438 11.3186 6.81488 11.2314 7.03437 11.2314H16.9654C17.1849 11.2314 17.3954 11.3186 17.5506 11.4738C17.7058 11.629 17.793 11.8395 17.793 12.059C17.793 12.2785 17.7058 12.489 17.5506 12.6442C17.3954 12.7994 17.1849 12.8866 16.9654 12.8866Z" fill="#101828"/>
</svg>
