<svg width="30" height="31" viewBox="0 0 30 31" fill="none" xmlns="http://www.w3.org/2000/svg">
<path d="M17.85 5.77961L16.17 4.09961L14.301 5.96561L16.749 6.88361L17.85 5.77961Z" fill="#B5179E"/>
<path d="M13.2209 4.0453L11.5409 2.3623L9.67188 4.2313L12.1199 5.1493L13.2209 4.0453Z" fill="#B5179E"/>
<path d="M26.775 14.7044L25.095 13.0244L23.991 14.1254L24.909 16.5734L26.775 14.7044Z" fill="#B5179E"/>
<path d="M25.7249 18.7543L26.6429 21.2023L28.5119 19.3333L26.8289 17.6533L25.7249 18.7543Z" fill="#B5179E"/>
<path d="M17.7449 17.606L26.7449 29.528L28.2449 26.774L22.9409 12.611C21.1559 14.375 19.3649 16.079 17.7449 17.606ZM18.2639 7.93395L4.10092 2.62695L1.34692 4.12695L13.2689 13.127C14.7959 11.51 16.4999 9.71895 18.2639 7.93395Z" fill="#B5179E"/>
<path d="M28.2359 2.63868C28.2359 2.63868 27.9209 2.22168 27.0779 2.22168C25.9379 2.22168 23.8319 2.97468 20.2439 6.57468C13.9979 12.8177 7.77287 19.7387 7.77287 19.7387L3.83087 20.4437L1.99487 22.9217L6.89987 23.9747L7.96187 28.8707L10.4399 27.0347L11.1449 23.0927C11.1449 23.0927 18.0569 16.8767 24.2999 10.6307C30.5429 4.38468 28.2359 2.63868 28.2359 2.63868Z" fill="#B5179E"/>
</svg>
