<svg width="24" height="25" viewBox="0 0 24 25" fill="none" xmlns="http://www.w3.org/2000/svg">
<path d="M10.3014 14.1946L20.1025 4.39705M10.58 14.6351L12.8024 19.08C13.3395 20.1541 13.608 20.6912 13.9463 20.8352C14.2399 20.9602 14.5755 20.9376 14.8496 20.7743C15.1656 20.5862 15.3596 20.018 15.7477 18.8815L19.9468 6.58398C20.2849 5.59372 20.454 5.09859 20.3383 4.77106C20.2376 4.48611 20.0135 4.26198 19.7285 4.1613C19.401 4.04558 18.9059 4.21465 17.9156 4.55279L5.61812 8.75193C4.48163 9.14 3.91338 9.33404 3.72527 9.64995C3.56202 9.9241 3.5394 10.2597 3.66438 10.5533C3.8084 10.8916 4.34547 11.1601 5.41961 11.6972L9.86445 13.9196C10.0414 14.0081 10.1299 14.0523 10.2066 14.1115C10.2747 14.1639 10.3357 14.2249 10.3881 14.293C10.4473 14.3697 10.4915 14.4581 10.58 14.6351Z" stroke="white" stroke-width="3" stroke-linecap="round" stroke-linejoin="round"/>
</svg>
