<svg width="16" height="18" viewBox="0 0 16 18" fill="none" xmlns="http://www.w3.org/2000/svg">
<path d="M13.4076 1.95508H14.4056V2.45508H13.4076V1.95508Z" fill="#66757F"/>
<path d="M0 5.95508V15.9551C0 17.0596 0.8955 17.9551 2 17.9551H14C15.1045 17.9551 16 17.0596 16 15.9551V5.95508H0Z" fill="#CCD6DD"/>
<path d="M14 1.95508H2C0.8955 1.95508 0 2.85058 0 3.95508V6.45508H16V3.95508C16 2.85058 15.1045 1.95508 14 1.95508Z" fill="#DD2E44"/>
<path d="M3.41809 4.32103C3.06709 4.32103 2.78259 3.98803 2.78259 3.57653C2.78259 3.16553 3.06709 2.83203 3.41809 2.83203C3.76859 2.83203 4.05309 3.16553 4.05309 3.57653C4.05309 3.98753 3.76859 4.32103 3.41809 4.32103ZM6.41809 4.32103C6.06709 4.32103 5.78259 3.98803 5.78259 3.57653C5.78259 3.16553 6.06709 2.83203 6.41809 2.83203C6.76859 2.83203 7.05309 3.16553 7.05309 3.57653C7.05309 3.98753 6.76859 4.32103 6.41809 4.32103ZM9.41809 4.32103C9.06709 4.32103 8.78259 3.98803 8.78259 3.57653C8.78259 3.16553 9.06709 2.83203 9.41809 2.83203C9.76859 2.83203 10.0536 3.16553 10.0536 3.57653C10.0531 3.98753 9.76859 4.32103 9.41809 4.32103ZM12.4181 4.32103C12.0671 4.32103 11.7826 3.98803 11.7826 3.57653C11.7826 3.16553 12.0671 2.83203 12.4181 2.83203C12.7686 2.83203 13.0536 3.16553 13.0536 3.57653C13.0531 3.98753 12.7686 4.32103 12.4181 4.32103Z" fill="#292F33"/>
<path d="M12.6576 0.0449219C12.0191 0.0449219 11.4661 0.445922 11.1606 1.02992C10.8576 0.458422 10.3021 0.0449219 9.65759 0.0449219C9.01909 0.0449219 8.46609 0.445922 8.16059 1.02992C7.85759 0.458422 7.30209 0.0449219 6.65759 0.0449219C6.01909 0.0449219 5.46609 0.445922 5.16059 1.02992C4.85759 0.458422 4.30209 0.0449219 3.65759 0.0449219C2.69059 0.0449219 1.90759 0.954422 1.90759 2.04742C1.90759 2.97442 2.43009 3.73292 3.19209 4.01042C3.57159 4.14792 3.80409 3.78692 3.77159 3.49742C3.74409 3.25742 3.58459 3.10092 3.40709 2.98842C3.16459 2.83492 2.90709 2.48442 2.90709 2.04992C2.90709 1.49792 3.24259 1.00242 3.65709 1.00242C4.07159 1.00242 4.40709 1.45492 4.40709 1.95492H4.91509C4.91359 1.98592 4.90709 2.01542 4.90709 2.04692C4.90709 2.97392 5.42959 3.73242 6.19159 4.00992C6.57109 4.14742 6.80359 3.78642 6.77109 3.49692C6.74359 3.25742 6.58409 3.10092 6.40659 2.98842C6.16409 2.83492 5.90659 2.48442 5.90659 2.04992C5.90659 1.49792 6.24209 1.00242 6.65659 1.00242C7.07109 1.00242 7.40759 1.45542 7.40759 1.95542H7.91559C7.91409 1.98642 7.90759 2.01592 7.90759 2.04742C7.90759 2.97442 8.43009 3.73292 9.19209 4.01042C9.57159 4.14792 9.80409 3.78692 9.77159 3.49742C9.74409 3.25792 9.58459 3.10142 9.40709 2.98892C9.16459 2.83542 8.90709 2.48492 8.90709 2.05042C8.90709 1.49842 9.24259 1.00292 9.65709 1.00292C10.0716 1.00292 10.4076 1.45542 10.4076 1.95542H10.9156C10.9141 1.98642 10.9076 2.01592 10.9076 2.04742C10.9076 2.97442 11.4301 3.73292 12.1921 4.01042C12.5716 4.14792 12.8041 3.78692 12.7716 3.49742C12.7441 3.25792 12.5846 3.10142 12.4071 2.98892C12.1646 2.83542 11.9071 2.48492 11.9071 2.05042C11.9071 1.49842 12.2426 1.00292 12.6571 1.00292C13.0716 1.00292 13.4076 1.45542 13.4076 1.95542H14.4056C14.3951 0.955422 13.6176 0.0449219 12.6576 0.0449219Z" fill="#66757F"/>
<path d="M4.5 7.45508H6.5V9.45508H4.5V7.45508ZM7 7.45508H9V9.45508H7V7.45508ZM9.5 7.45508H11.5V9.45508H9.5V7.45508ZM12 7.45508H14V9.45508H12V7.45508ZM2 9.95508H4V11.9551H2V9.95508ZM4.5 9.95508H6.5V11.9551H4.5V9.95508ZM7 9.95508H9V11.9551H7V9.95508ZM9.5 9.95508H11.5V11.9551H9.5V9.95508ZM12 9.95508H14V11.9551H12V9.95508ZM2 12.4551H4V14.4551H2V12.4551ZM4.5 12.4551H6.5V14.4551H4.5V12.4551ZM7 12.4551H9V14.4551H7V12.4551ZM9.5 12.4551H11.5V14.4551H9.5V12.4551ZM12 12.4551H14V14.4551H12V12.4551ZM2 14.9551H4V16.9551H2V14.9551ZM4.5 14.9551H6.5V16.9551H4.5V14.9551ZM7 14.9551H9V16.9551H7V14.9551Z" fill="white"/>
</svg>
