<svg width="24" height="24" viewBox="0 0 24 24" fill="none" xmlns="http://www.w3.org/2000/svg">
<path d="M12.2467 7.44678C11.7072 7.44741 11.1721 7.54449 10.6667 7.73344L16.5334 13.6001C16.7249 13.0885 16.822 12.5464 16.8201 12.0001C16.8148 10.7907 16.3306 9.63254 15.4735 8.7792C14.6164 7.92585 13.4562 7.44677 12.2467 7.44678V7.44678Z" fill="#98a2b3"/>
<path d="M22.8601 11.6867C20.6134 7.53335 16.6734 5.02002 12.3134 5.02002C11.1263 5.02281 9.94718 5.21408 8.82007 5.58669L9.8934 6.66669C10.684 6.46237 11.4969 6.35712 12.3134 6.35335C16.0667 6.35335 19.4801 8.44669 21.5134 11.9734C20.7675 13.2818 19.7787 14.4357 18.6001 15.3734L19.5467 16.32C20.9108 15.2196 22.0436 13.8601 22.8801 12.32L23.0534 12L22.8601 11.6867Z" fill="#98a2b3"/>
<path d="M3.24667 3.8532L6.22 6.82653C4.34062 8.0366 2.8046 9.71037 1.76 11.6865L1.58667 11.9999L1.76 12.3199C4.00667 16.4732 7.94667 18.9865 12.3067 18.9865C14.0084 18.9862 15.6881 18.601 17.22 17.8599L20.5533 21.1932L21.72 20.1932L4.38667 2.85986L3.24667 3.8532ZM8.78 9.38653C8.15629 10.2661 7.86395 11.3381 7.95475 12.4125C8.04554 13.487 8.51361 14.4947 9.27607 15.2571C10.0385 16.0196 11.0462 16.4877 12.1207 16.5784C13.1951 16.6692 14.2671 16.3769 15.1467 15.7532L16.2133 16.8199C14.9785 17.3477 13.6496 17.6198 12.3067 17.6199C8.55334 17.6199 5.14 15.5265 3.10667 11.9999C4.08247 10.272 5.48782 8.82533 7.18667 7.79986L8.78 9.38653Z" fill="#98a2b3"/>
</svg>
