<svg width="32" height="32" viewBox="0 0 32 32" fill="none" xmlns="http://www.w3.org/2000/svg">
<path d="M22.0001 22.4997C21.964 22.4529 21.9238 22.4094 21.8801 22.3697L21.5301 21.9597L20.2151 20.4597L13.6751 12.9597C13.63 12.9213 13.5897 12.8776 13.5551 12.8297L12.1651 11.2397L10.8501 9.73965L10.1751 8.94965L10.1401 8.90465L10.0601 8.81465L5.96009 4.10965C5.87863 3.99692 5.77455 3.90241 5.65451 3.83218C5.53446 3.76195 5.40108 3.71753 5.26289 3.70176C5.12471 3.68599 4.98475 3.69922 4.85197 3.74061C4.71918 3.782 4.5965 3.85063 4.49174 3.94211C4.38698 4.0336 4.30246 4.14594 4.24357 4.27194C4.18469 4.39794 4.15274 4.53484 4.14976 4.6739C4.14678 4.81295 4.17284 4.95109 4.22628 5.0795C4.27971 5.20791 4.35934 5.32376 4.46009 5.41965L7.80009 9.24965C4.95509 10.9397 2.87509 13.1997 1.44509 14.7497C1.27509 14.9347 1.12009 15.1097 0.945087 15.2497L0.900087 15.2947L0.855087 15.3497C0.830685 15.3758 0.808913 15.4043 0.790087 15.4347C0.758519 15.4836 0.731729 15.5355 0.710087 15.5897C0.685568 15.6515 0.665516 15.715 0.650087 15.7797C0.623148 15.9116 0.623148 16.0477 0.650087 16.1797C0.665516 16.2443 0.685568 16.3078 0.710087 16.3697C0.731729 16.4238 0.758519 16.4757 0.790087 16.5247C0.808913 16.555 0.830685 16.5835 0.855087 16.6097L0.900087 16.6647L0.945087 16.7097C1.09509 16.8697 1.25509 17.0397 1.44509 17.2097C3.95509 19.9997 8.64509 25.0797 16.0001 25.0797C17.6639 25.0796 19.3168 24.8112 20.8951 24.2847L24.0401 27.8897C24.1215 28.0024 24.2256 28.0969 24.3457 28.1671C24.4657 28.2374 24.5991 28.2818 24.7373 28.2975C24.8755 28.3133 25.0154 28.3001 25.1482 28.2587C25.281 28.2173 25.4037 28.1487 25.5084 28.0572C25.6132 27.9657 25.6977 27.8534 25.7566 27.7274C25.8155 27.6014 25.8474 27.4645 25.8504 27.3254C25.8534 27.1864 25.8273 27.0482 25.7739 26.9198C25.7205 26.7914 25.6408 26.6755 25.5401 26.5797L22.0001 22.4997ZM16.0001 24.1347C14.4941 24.1363 13.0173 23.7194 11.7346 22.9304C10.4518 22.1415 9.41359 21.0115 8.73576 19.6668C8.05792 18.322 7.76716 16.8153 7.89595 15.3148C8.02474 13.8144 8.568 12.3793 9.46509 11.1697L10.8201 12.7247C10.2311 13.6515 9.90219 14.7196 9.86767 15.8172C9.83316 16.9147 10.0944 18.0014 10.6239 18.9634C11.1535 19.9254 11.9319 20.7273 12.8777 21.2852C13.8236 21.8431 14.902 22.1365 16.0001 22.1347C16.8758 22.1352 17.7411 21.9441 18.5351 21.5747L19.4501 22.6247L19.8951 23.1247C18.7018 23.7822 17.3625 24.1295 16.0001 24.1347ZM22.7901 20.4197L22.7301 20.4997C22.7544 20.4765 22.7747 20.4495 22.7901 20.4197ZM20.3251 14.5497C20.4597 14.3914 20.5416 14.1951 20.5595 13.9881C20.5775 13.7811 20.5305 13.5737 20.4251 13.3947C20.0814 12.8093 19.6237 12.2988 19.0792 11.8934C18.5347 11.488 17.9145 11.196 17.2551 11.0347C16.3928 10.8097 15.4873 10.8097 14.6251 11.0347L13.9101 10.2147C14.5803 9.97429 15.2881 9.85575 16.0001 9.86465C16.0817 9.85964 16.1635 9.85964 16.2451 9.86465C17.8298 9.92674 19.3287 10.6006 20.4271 11.7446C21.5254 12.8886 22.1376 14.4138 22.1351 15.9997C22.1352 16.1967 22.1252 16.3936 22.1051 16.5897C22.0351 17.3831 21.8037 18.1539 21.4251 18.8547L16.2151 12.8797C16.7247 12.9148 17.2183 13.0727 17.6537 13.34C18.089 13.6073 18.4532 13.976 18.7151 14.4147C18.8504 14.6427 19.0707 14.8077 19.3276 14.8733C19.5845 14.939 19.857 14.8999 20.0851 14.7647C20.1777 14.7085 20.2591 14.6356 20.3251 14.5497ZM31.3551 15.9997C31.3622 16.0661 31.3622 16.1332 31.3551 16.1997C31.3397 16.2643 31.3196 16.3278 31.2951 16.3897C31.2734 16.4438 31.2467 16.4957 31.2151 16.5447C31.1963 16.575 31.1745 16.6035 31.1501 16.6297L31.1051 16.6847L31.0601 16.7297L30.6051 17.2297C29.2841 18.7258 27.8371 20.1059 26.2801 21.3547C25.7447 21.7664 25.1872 22.1487 24.6101 22.4997L23.2751 20.9997L22.8101 20.4697C23.212 19.859 23.5282 19.1962 23.7501 18.4997C24.1769 17.166 24.2524 15.7447 23.9693 14.3733C23.6862 13.0019 23.0541 11.7267 22.1342 10.671C21.2142 9.61532 20.0374 8.8148 18.7176 8.34683C17.3978 7.87886 15.9796 7.75929 14.6001 7.99965C13.8799 8.12249 13.1811 8.34813 12.5251 8.66965L11.6051 7.60965C12.3237 7.3775 13.0616 7.21017 13.8101 7.10965C14.5344 6.99266 15.2664 6.92916 16.0001 6.91965C23.3551 6.91965 28.0451 11.9997 30.5651 14.7497C30.7301 14.9397 30.8901 15.1097 31.0401 15.2497C31.074 15.2792 31.1042 15.3128 31.1301 15.3497C31.1545 15.3758 31.1763 15.4043 31.1951 15.4347V15.4597C31.2197 15.5014 31.2415 15.5449 31.2601 15.5897C31.2853 15.6512 31.3054 15.7148 31.3201 15.7797C31.3408 15.8513 31.3525 15.9252 31.3551 15.9997Z" fill="#B5179E"/>
</svg>
