<svg width="30" height="31" viewBox="0 0 30 31" fill="none" xmlns="http://www.w3.org/2000/svg">
<g clip-path="url(#clip0_162_21175)">
<path d="M5.49854 4.25488H8.68604V9.64551H5.49854V4.25488Z" fill="#B5179E"/>
<path d="M5.05786 3.00781H9.12661V4.25469H5.05786V3.00781Z" fill="#F38FE5"/>
<path d="M1.67822 29.1035H28.322V30.8754H1.67822V29.1035Z" fill="#B5179E"/>
<path d="M4.26099 15.6123H25.7391V30.8748H4.26099V15.6123Z" fill="#F9F9F9"/>
<path d="M4.26099 14.8906H25.7391V15.6125H4.26099V14.8906Z" fill="#B5179E"/>
<path d="M14.2031 1.19829L2.03436 12.9124C1.28905 13.6295 1.7953 14.8905 2.83124 14.8905H27.1687C28.2047 14.8905 28.7156 13.6295 27.9656 12.9124L15.7969 1.19829C15.5834 0.990969 15.2976 0.875 15 0.875C14.7024 0.875 14.4166 0.990969 14.2031 1.19829Z" fill="#F38FE5"/>
<path d="M14.7845 30.8746H6.64697V24.9027C6.64697 22.6574 8.47041 20.834 10.7157 20.834C12.961 20.834 14.7845 22.6574 14.7845 24.9027V30.8746Z" fill="#B5179E"/>
<path d="M20.1844 19.8223H23.3531V22.991H20.1844V19.8223ZM20.1844 23.502H23.3531V26.6707H20.1844V23.502ZM16.5 19.8223H19.6687V22.991H16.5V19.8223ZM16.5 23.502H19.6687V26.6707H16.5V23.502Z" fill="#F5B9ED"/>
<path d="M14.9999 12.0496C13.6733 12.0496 12.5952 10.9715 12.5952 9.64492C12.5952 8.31836 13.6733 7.24023 14.9999 7.24023C16.3265 7.24023 17.4046 8.31836 17.4046 9.64492C17.4046 10.9715 16.3265 12.0496 14.9999 12.0496Z" fill="#B5179E"/>
</g>
<defs>
<clipPath id="clip0_162_21175">
<rect width="30" height="30" fill="white" transform="translate(0 0.875)"/>
</clipPath>
</defs>
</svg>
