<svg xmlns="http://www.w3.org/2000/svg" xmlns:xlink="http://www.w3.org/1999/xlink" viewBox="0,0,256,256" width="48px" height="48px" fill-rule="nonzero"><g fill="#98a2b3" fill-rule="nonzero" stroke="none" stroke-width="1" stroke-linecap="butt" stroke-linejoin="miter" stroke-miterlimit="10" stroke-dasharray="" stroke-dashoffset="0" font-family="none" font-weight="none" font-size="none" text-anchor="none" style="mix-blend-mode: normal"><g transform="scale(4,4)"><path d="M32,10c-12.15,0 -22,9.85 -22,22c0,12.15 9.85,22 22,22c12.15,0 22,-9.85 22,-22c0,-12.15 -9.85,-22 -22,-22zM32,14c9.941,0 18,8.059 18,18c0,9.941 -8.059,18 -18,18c-9.941,0 -18,-8.059 -18,-18c0,-9.941 8.059,-18 18,-18zM25.63672,23.63672c-0.51175,0 -1.02356,0.19544 -1.41406,0.58594c-0.781,0.781 -0.781,2.04712 0,2.82813l4.94922,4.94922l-4.94922,4.94922c-0.781,0.781 -0.781,2.04713 0,2.82813c0.781,0.781 2.04712,0.781 2.82813,0l4.94922,-4.94922l4.94922,4.94922c0.781,0.781 2.04713,0.781 2.82813,0c0.781,-0.781 0.781,-2.04713 0,-2.82812l-4.94922,-4.94922l4.94922,-4.94922c0.781,-0.781 0.781,-2.04713 0,-2.82812c-0.781,-0.781 -2.04713,-0.781 -2.82812,0l-4.94922,4.94922l-4.94922,-4.94922c-0.3905,-0.3905 -0.90231,-0.58594 -1.41406,-0.58594z"></path></g></g></svg>