<svg width="50" height="50" viewBox="0 0 50 50" fill="none" xmlns="http://www.w3.org/2000/svg">
<path opacity="0.4" d="M35.4167 38.3958H27.0834L17.8126 44.5625C16.4376 45.4792 14.5834 44.5 14.5834 42.8333V38.3958C8.33341 38.3958 4.16675 34.2292 4.16675 27.9792V15.4792C4.16675 9.22917 8.33341 5.0625 14.5834 5.0625H35.4167C41.6667 5.0625 45.8334 9.22917 45.8334 15.4792V27.9792C45.8334 34.2292 41.6667 38.3958 35.4167 38.3958Z" fill="#B5179E"/>
<path d="M25 25.2295C24.1459 25.2295 23.4375 24.5212 23.4375 23.667V23.2296C23.4375 20.8129 25.2083 19.6254 25.875 19.167C26.6458 18.6462 26.8958 18.2921 26.8958 17.7504C26.8958 16.7087 26.0417 15.8545 25 15.8545C23.9584 15.8545 23.1042 16.7087 23.1042 17.7504C23.1042 18.6046 22.3959 19.3129 21.5417 19.3129C20.6876 19.3129 19.9792 18.6046 19.9792 17.7504C19.9792 14.9796 22.2292 12.7295 25 12.7295C27.7709 12.7295 30.0208 14.9796 30.0208 17.7504C30.0208 20.1254 28.2709 21.3129 27.625 21.7504C26.8125 22.292 26.5625 22.6462 26.5625 23.2296V23.667C26.5625 24.542 25.8542 25.2295 25 25.2295Z" fill="#B5179E"/>
<path d="M25 30.417C24.125 30.417 23.4375 29.7087 23.4375 28.8545C23.4375 28.0003 24.1458 27.292 25 27.292C25.8542 27.292 26.5625 28.0003 26.5625 28.8545C26.5625 29.7087 25.875 30.417 25 30.417Z" fill="#B5179E"/>
</svg>
