<svg width="32" height="32" viewBox="0 0 32 32" fill="none" xmlns="http://www.w3.org/2000/svg">
<path fill-rule="evenodd" clip-rule="evenodd" d="M16 11.8299C17.7334 11.8299 19.3292 12.4194 20.5977 13.4088C19.905 14.2386 19.4879 15.3065 19.4879 16.4717C19.4879 17.5351 19.8353 18.5175 20.4226 19.3118H11.5774C12.1647 18.5175 12.5121 17.5352 12.5121 16.4717C12.5121 15.3065 12.095 14.2386 11.4023 13.4088C12.6708 12.4194 14.2666 11.8299 16 11.8299ZM7.72928 21.2649C11.0899 21.2649 13.933 23.4806 14.8775 26.5308C15.0435 27.0667 14.9533 27.5998 14.6204 28.0514C14.2875 28.503 13.8049 28.7468 13.2439 28.7468H2.2146C1.6536 28.7468 1.17097 28.503 0.838096 28.0514C0.505221 27.5998 0.415033 27.0667 0.580971 26.5308C1.52553 23.4807 4.36872 21.2649 7.72928 21.2649ZM24.2707 12.6889C22.1815 12.6889 20.4879 14.3825 20.4879 16.4717C20.4879 18.5609 22.1815 20.2545 24.2707 20.2545C26.3599 20.2545 28.0535 18.5609 28.0535 16.4717C28.0535 14.3825 26.3599 12.6889 24.2707 12.6889ZM7.72928 12.6889C5.6401 12.6889 3.94647 14.3825 3.94647 16.4717C3.94647 18.5609 5.6401 20.2545 7.72928 20.2545C9.81847 20.2545 11.5121 18.5609 11.5121 16.4717C11.5121 14.3825 9.81847 12.6889 7.72928 12.6889ZM24.2707 21.2649C27.6313 21.2649 30.4744 23.4806 31.4189 26.5308C31.5849 27.0667 31.4947 27.5998 31.1618 28.0514C30.8289 28.503 30.3463 28.7468 29.7853 28.7468H18.756C18.195 28.7468 17.7124 28.503 17.3795 28.0514C17.0467 27.5998 16.9565 27.0667 17.1224 26.5308C18.067 23.4807 20.9102 21.2649 24.2707 21.2649ZM16 3.25391C18.0892 3.25391 19.7828 4.94753 19.7828 7.03672C19.7828 9.12591 18.0892 10.8195 16 10.8195C13.9108 10.8195 12.2172 9.12591 12.2172 7.03672C12.2172 4.94753 13.9108 3.25391 16 3.25391Z" fill="#B5179E"/>
</svg>
