<svg width="32" height="32" viewBox="0 0 32 32" fill="none" xmlns="http://www.w3.org/2000/svg">
<path d="M16 12.96C19.3137 12.96 22 10.2737 22 6.95996C22 3.64625 19.3137 0.959961 16 0.959961C12.6863 0.959961 10 3.64625 10 6.95996C10 10.2737 12.6863 12.96 16 12.96Z" fill="#B5179E"/>
<path d="M30.86 26.8396C30.2376 24.0059 28.8105 21.412 26.75 19.3696C26.2499 18.8677 25.7079 18.4094 25.13 17.9996C22.498 16.0254 19.29 14.9712 16 14.9996C11.9771 14.979 8.10931 16.5498 5.24 19.3696C3.17951 21.412 1.75238 24.0059 1.13 26.8396C1.02182 27.3407 1.02767 27.8596 1.1471 28.3581C1.26653 28.8566 1.4965 29.3219 1.82 29.7196C2.15502 30.1258 2.57691 30.4516 3.05457 30.6732C3.53223 30.8947 4.05351 31.0062 4.58 30.9996H27.42C27.948 30.9999 28.4694 30.8814 28.9454 30.6529C29.4214 30.4244 29.84 30.0918 30.17 29.6796C30.4877 29.2866 30.7143 28.8281 30.8336 28.337C30.953 27.8459 30.962 27.3345 30.86 26.8396Z" fill="#B5179E"/>
</svg>
