<svg width="71" height="52" viewBox="0 0 71 52" fill="none" xmlns="http://www.w3.org/2000/svg">
<path d="M6.55172 8.745L17.7131 6.88477V40.7372L12.8018 41.7712C9.51306 42.4636 6.29705 40.3199 5.67081 37.0179L1.64319 15.7814C1.01599 12.4743 3.23148 9.29837 6.55172 8.745Z" fill="white" stroke="#3B82F6" stroke-width="2"/>
<path d="M64.4483 8.745L53.2869 6.88477V40.7372L58.1982 41.7712C61.4869 42.4636 64.703 40.3199 65.3292 37.0179L69.3568 15.7814C69.984 12.4743 67.7685 9.29837 64.4483 8.745Z" fill="white" stroke="#3B82F6" stroke-width="2"/>
<g filter="url(#filter0_dd_2352_11209)">
<rect x="16.5654" width="37.8689" height="44.7541" rx="6" fill="white"/>
<rect x="17.5654" y="1" width="35.8689" height="42.7541" rx="5" stroke="#3B82F6" stroke-width="2"/>
</g>
<path d="M48.4343 43.7536H22.5654C19.804 43.7536 17.5654 41.5151 17.5654 38.7536L17.5654 35.2925L29.9722 22.1447L39.4824 33.0886C40.2831 34.01 41.7153 34.0054 42.51 33.079L47.7455 26.976L53.4343 33.0974V38.7536C53.4343 41.5151 51.1957 43.7536 48.4343 43.7536Z" fill="#EFF6FF" stroke="#3B82F6" stroke-width="2"/>
<circle cx="40.0897" cy="14.3446" r="4.16393" fill="#EFF6FF" stroke="#3B82F6" stroke-width="2"/>
<defs>
<filter id="filter0_dd_2352_11209" x="13.5654" y="0" width="43.8691" height="51.7539" filterUnits="userSpaceOnUse" color-interpolation-filters="sRGB">
<feFlood flood-opacity="0" result="BackgroundImageFix"/>
<feColorMatrix in="SourceAlpha" type="matrix" values="0 0 0 0 0 0 0 0 0 0 0 0 0 0 0 0 0 0 127 0" result="hardAlpha"/>
<feOffset dy="2"/>
<feGaussianBlur stdDeviation="1"/>
<feComposite in2="hardAlpha" operator="out"/>
<feColorMatrix type="matrix" values="0 0 0 0 0 0 0 0 0 0 0 0 0 0 0 0 0 0 0.06 0"/>
<feBlend mode="normal" in2="BackgroundImageFix" result="effect1_dropShadow_2352_11209"/>
<feColorMatrix in="SourceAlpha" type="matrix" values="0 0 0 0 0 0 0 0 0 0 0 0 0 0 0 0 0 0 127 0" result="hardAlpha"/>
<feOffset dy="4"/>
<feGaussianBlur stdDeviation="1.5"/>
<feComposite in2="hardAlpha" operator="out"/>
<feColorMatrix type="matrix" values="0 0 0 0 0 0 0 0 0 0 0 0 0 0 0 0 0 0 0.07 0"/>
<feBlend mode="normal" in2="effect1_dropShadow_2352_11209" result="effect2_dropShadow_2352_11209"/>
<feBlend mode="normal" in="SourceGraphic" in2="effect2_dropShadow_2352_11209" result="shape"/>
</filter>
</defs>
</svg>
