<svg width="68" height="26" viewBox="0 0 68 26" fill="none" xmlns="http://www.w3.org/2000/svg">
<path d="M8.34538 25.48C6.99071 25.48 5.83338 25.2667 4.87338 24.84C3.91338 24.4027 3.11871 23.8213 2.48938 23.096L0.457376 25.32H0.281376V18.488H0.473376C0.686709 19.4267 0.990709 20.3067 1.38538 21.128C1.78004 21.9387 2.28138 22.6533 2.88938 23.272C3.50804 23.8907 4.24404 24.376 5.09738 24.728C5.96138 25.08 6.96938 25.256 8.12138 25.256C9.22004 25.256 10.1747 25.0587 10.9854 24.664C11.8067 24.2587 12.4414 23.6773 12.8894 22.92C13.348 22.152 13.5774 21.224 13.5774 20.136C13.5774 19.2187 13.3427 18.4453 12.8734 17.816C12.404 17.1867 11.7854 16.6427 11.0174 16.184C10.2494 15.7147 9.40671 15.2773 8.48938 14.872C7.57204 14.4667 6.64938 14.0453 5.72138 13.608C4.80404 13.16 3.96138 12.6373 3.19338 12.04C2.43604 11.432 1.82271 10.7013 1.35338 9.848C0.884043 8.99467 0.649376 7.95467 0.649376 6.728C0.649376 5.512 0.958709 4.45067 1.57738 3.544C2.20671 2.63733 3.03338 1.93333 4.05738 1.432C5.08138 0.930665 6.20138 0.679998 7.41738 0.679998C8.46271 0.679998 9.41204 0.845332 10.2654 1.176C11.1187 1.50667 11.86 2.01333 12.4894 2.696L14.4894 0.679998H14.6654V7.416H14.4734C14.196 5.96533 13.7427 4.76 13.1134 3.8C12.4947 2.84 11.7214 2.12533 10.7934 1.656C9.87604 1.176 8.84138 0.935999 7.68938 0.935999C6.21738 0.935999 5.10271 1.30933 4.34538 2.056C3.58804 2.792 3.20938 3.76267 3.20938 4.968C3.20938 5.8 3.43871 6.504 3.89738 7.08C4.35604 7.656 4.95871 8.168 5.70538 8.616C6.46271 9.05333 7.28938 9.47467 8.18538 9.88C9.09204 10.2747 9.99871 10.712 10.9054 11.192C11.812 11.6613 12.6387 12.216 13.3854 12.856C14.132 13.496 14.7347 14.2693 15.1934 15.176C15.652 16.0827 15.8814 17.1813 15.8814 18.472C15.8814 19.88 15.5667 21.112 14.9374 22.168C14.3187 23.2133 13.4387 24.0293 12.2974 24.616C11.1667 25.192 9.84938 25.48 8.34538 25.48ZM30.9199 25.32C30.3652 25.32 29.8479 25.24 29.3679 25.08C28.8985 24.9307 28.5199 24.6587 28.2319 24.264C27.9439 23.8587 27.7999 23.2933 27.7999 22.568V15.256C27.7999 14.488 27.7359 13.72 27.6079 12.952C27.4905 12.184 27.2239 11.5493 26.8079 11.048C26.4025 10.5467 25.7732 10.296 24.9199 10.296C24.3759 10.296 23.8159 10.3653 23.2399 10.504C22.6639 10.632 22.1305 10.824 21.6399 11.08C21.1599 11.336 20.7705 11.656 20.4719 12.04C20.1732 12.4133 20.0239 12.8453 20.0239 13.336H19.8319C19.8319 12.76 20.0292 12.3013 20.4239 11.96C20.8185 11.608 21.2665 11.432 21.7679 11.432C22.2905 11.432 22.7599 11.592 23.1759 11.912C23.6025 12.232 23.8159 12.6853 23.8159 13.272C23.8159 13.944 23.5972 14.44 23.1599 14.76C22.7332 15.0693 22.2692 15.224 21.7679 15.224C21.2025 15.224 20.7332 15.064 20.3599 14.744C19.9865 14.4133 19.7999 13.944 19.7999 13.336C19.7999 12.8027 19.9599 12.3333 20.2799 11.928C20.6105 11.5227 21.0479 11.1813 21.5919 10.904C22.1465 10.616 22.7705 10.3973 23.4639 10.248C24.1572 10.0987 24.8665 10.024 25.5919 10.024C27.1065 10.024 28.2585 10.2747 29.0479 10.776C29.8479 11.2667 30.3919 11.912 30.6799 12.712C30.9679 13.512 31.1119 14.36 31.1119 15.256V23.432C31.1119 23.8053 31.1865 24.1253 31.3359 24.392C31.4959 24.6587 31.7945 24.792 32.2319 24.792C32.5732 24.792 32.9572 24.6373 33.3839 24.328C33.8105 24.008 34.1519 23.5653 34.4079 23L34.5199 23.144C34.2319 23.7947 33.7679 24.3227 33.1279 24.728C32.4879 25.1227 31.7519 25.32 30.9199 25.32ZM23.2399 25.32C21.8532 25.32 20.7439 24.968 19.9119 24.264C19.0905 23.5493 18.6799 22.584 18.6799 21.368C18.6799 19.9387 19.2825 18.84 20.4879 18.072C21.7039 17.2933 23.4479 16.904 25.7199 16.904H29.2879V17.08H26.0239C25.1172 17.08 24.3972 17.304 23.8639 17.752C23.3412 18.1893 22.9625 18.7227 22.7279 19.352C22.5039 19.9707 22.3919 20.5627 22.3919 21.128C22.3919 21.6613 22.4559 22.1947 22.5839 22.728C22.7119 23.2613 22.9305 23.7093 23.2399 24.072C23.5492 24.424 23.9705 24.6 24.5039 24.6C25.0799 24.6 25.6185 24.4133 26.1199 24.04C26.6319 23.656 27.0372 23.0693 27.3359 22.28C27.6452 21.4907 27.7999 20.4667 27.7999 19.208H27.9439C27.9439 20.4347 27.7732 21.5067 27.4319 22.424C27.1012 23.3413 26.5892 24.056 25.8959 24.568C25.2132 25.0693 24.3279 25.32 23.2399 25.32ZM51.9199 10.28V10.472H49.5679L43.4559 25.32H42.9599L36.8639 10.472H35.0079V10.28H43.1679V10.472H40.5279L44.7359 21.576L49.3119 10.472H46.3039V10.28H51.9199ZM57.4184 4.984C56.8317 4.984 56.325 4.776 55.8984 4.36C55.4824 3.93333 55.2744 3.42667 55.2744 2.84C55.2744 2.24266 55.4824 1.736 55.8984 1.32C56.325 0.903999 56.8317 0.695999 57.4184 0.695999C58.0264 0.695999 58.533 0.903999 58.9384 1.32C59.3544 1.736 59.5624 2.24266 59.5624 2.84C59.5624 3.42667 59.3544 3.93333 58.9384 4.36C58.533 4.776 58.0264 4.984 57.4184 4.984ZM59.0824 10.28V24.808H61.0824V25H53.7544V24.808H55.7544V10.472H53.7544V10.28H59.0824ZM65.7564 25.32C65.351 25.32 64.983 25.2187 64.6524 25.016C64.3217 24.824 64.055 24.5627 63.8524 24.232C63.6604 23.9013 63.5644 23.5333 63.5644 23.128C63.5644 22.7333 63.6604 22.3707 63.8524 22.04C64.055 21.6987 64.3217 21.432 64.6524 21.24C64.983 21.0373 65.351 20.936 65.7564 20.936C66.151 20.936 66.5137 21.0373 66.8444 21.24C67.1857 21.432 67.4524 21.6987 67.6444 22.04C67.847 22.3707 67.9484 22.7333 67.9484 23.128C67.9484 23.5333 67.847 23.9013 67.6444 24.232C67.4524 24.5627 67.1857 24.824 66.8444 25.016C66.5137 25.2187 66.151 25.32 65.7564 25.32Z" fill="#B5179E"/>
</svg>
