<svg width="24" height="26" viewBox="0 0 24 26" fill="none" xmlns="http://www.w3.org/2000/svg">
<path fill-rule="evenodd" clip-rule="evenodd" d="M6.00676 21.4185L7.00101 20.4147C7.21355 20.2003 7.56002 20.1987 7.77449 20.411C7.98892 20.6234 7.9905 20.97 7.77806 21.1845L5.88195 23.0987C5.7277 23.2543 5.4956 23.303 5.2919 23.2223C5.08821 23.1416 4.95245 22.947 4.94664 22.7282L4.76968 15.9314C4.76183 15.6296 5.00022 15.3783 5.3021 15.3704C5.60384 15.3626 5.85517 15.6011 5.86302 15.9028L6.00676 21.4185Z" fill="#101828"/>
<path fill-rule="evenodd" clip-rule="evenodd" d="M11.3279 7.42825L12.2144 7.05005C12.4921 6.93156 12.6214 6.60959 12.5029 6.33227C12.3844 6.05452 12.0624 5.92531 11.7851 6.04422L10.8986 6.42243C10.6209 6.54091 10.4916 6.86288 10.6101 7.1402C10.729 7.41795 11.0506 7.54716 11.3279 7.42825Z" fill="#101828"/>
<path fill-rule="evenodd" clip-rule="evenodd" d="M22.2121 2.78088L14.0994 6.24524C13.8217 6.36372 13.5001 6.23451 13.3816 5.95719C13.2632 5.67944 13.3919 5.3579 13.6697 5.23942L23.0351 1.24016C23.2403 1.15259 23.4785 1.19852 23.6365 1.3565C23.7945 1.51448 23.8404 1.7523 23.7528 1.95793L14.1449 24.4578C14.0737 24.6248 13.9238 24.7454 13.7457 24.7802C13.5675 24.8146 13.3838 24.7583 13.255 24.63L8.14947 19.5244C7.95929 19.3338 7.93568 19.0333 8.09409 18.8157L13.9753 10.73L5.62224 16.3704C5.40502 16.5173 5.11482 16.4894 4.92937 16.3043L0.363027 11.7376C0.23467 11.6092 0.178433 11.4255 0.212776 11.2473C0.247549 11.0692 0.368179 10.9193 0.535172 10.8481L8.73287 7.34765C9.01019 7.22917 9.33173 7.35796 9.45021 7.63571C9.56869 7.91346 9.43991 8.23499 9.16216 8.35348L1.70842 11.5362L5.38399 15.2118L15.9415 8.0826C16.1617 7.93406 16.4566 7.96497 16.6412 8.156C16.8254 8.34704 16.846 8.64282 16.6897 8.85746L9.2536 19.0814L13.4568 23.2846L22.2121 2.78088Z" fill="#101828"/>
</svg>
