<svg width="24" height="25" viewBox="0 0 24 25" fill="none" xmlns="http://www.w3.org/2000/svg">
<path d="M12 22.591C6.29543 22.591 1.65515 17.9507 1.65515 12.2462C1.65515 6.54164 6.29543 1.90137 12 1.90137C17.7045 1.90137 22.3448 6.54164 22.3448 12.2462C22.3448 17.9507 17.7045 22.591 12 22.591ZM12 3.55654C7.20825 3.55654 3.31032 7.45447 3.31032 12.2462C3.31032 17.0379 7.20825 20.9359 12 20.9359C16.7917 20.9359 20.6896 17.0371 20.6896 12.2462C20.6896 7.4553 16.7917 3.55654 12 3.55654Z" fill="white"/>
<path d="M11.9999 18.0393C11.7805 18.0393 11.57 17.9521 11.4148 17.7969C11.2596 17.6417 11.1724 17.4312 11.1724 17.2117V7.28071C11.1724 7.06122 11.2596 6.85072 11.4148 6.69552C11.57 6.54032 11.7805 6.45312 11.9999 6.45312C12.2194 6.45312 12.4299 6.54032 12.5851 6.69552C12.7403 6.85072 12.8275 7.06122 12.8275 7.28071V17.2117C12.8275 17.4312 12.7403 17.6417 12.5851 17.7969C12.4299 17.9521 12.2194 18.0393 11.9999 18.0393Z" fill="white"/>
<path d="M16.9655 13.0741H7.0345C6.81501 13.0741 6.60451 12.9869 6.4493 12.8317C6.2941 12.6765 6.20691 12.466 6.20691 12.2465C6.20691 12.027 6.2941 11.8165 6.4493 11.6613C6.60451 11.5061 6.81501 11.4189 7.0345 11.4189H16.9655C17.185 11.4189 17.3955 11.5061 17.5507 11.6613C17.7059 11.8165 17.7931 12.027 17.7931 12.2465C17.7931 12.466 17.7059 12.6765 17.5507 12.8317C17.3955 12.9869 17.185 13.0741 16.9655 13.0741Z" fill="white"/>
</svg>
