<svg width="24" height="25" viewBox="0 0 24 25" fill="none" xmlns="http://www.w3.org/2000/svg">
<path fill-rule="evenodd" clip-rule="evenodd" d="M6.00689 20.606L7.00113 19.6022C7.21367 19.3878 7.56014 19.3862 7.77461 19.5985C7.98904 19.8109 7.99062 20.1575 7.77818 20.372L5.88207 22.2862C5.72782 22.4418 5.49572 22.4905 5.29203 22.4098C5.08833 22.3291 4.95257 22.1345 4.94676 21.9157L4.7698 15.1189C4.76195 14.8171 5.00034 14.5658 5.30222 14.5579C5.60396 14.5501 5.85529 14.7886 5.86315 15.0903L6.00689 20.606Z" fill="white"/>
<path fill-rule="evenodd" clip-rule="evenodd" d="M11.3279 6.61575L12.2144 6.23755C12.4921 6.11906 12.6214 5.79709 12.5029 5.51977C12.3844 5.24202 12.0624 5.11281 11.7851 5.23172L10.8986 5.60993C10.6209 5.72841 10.4916 6.05038 10.6101 6.3277C10.729 6.60545 11.0506 6.73466 11.3279 6.61575Z" fill="white"/>
<path fill-rule="evenodd" clip-rule="evenodd" d="M22.2121 1.96838L14.0994 5.43274C13.8217 5.55122 13.5001 5.42201 13.3816 5.14469C13.2632 4.86694 13.3919 4.5454 13.6697 4.42692L23.0351 0.427661C23.2403 0.340086 23.4785 0.386022 23.6365 0.544C23.7945 0.701978 23.8404 0.939804 23.7528 1.14543L14.1449 23.6453C14.0737 23.8123 13.9238 23.9329 13.7457 23.9677C13.5675 24.0021 13.3838 23.9458 13.255 23.8175L8.14947 18.7119C7.95929 18.5213 7.93568 18.2208 8.09409 18.0032L13.9753 9.91752L5.62224 15.5579C5.40502 15.7048 5.11482 15.6769 4.92937 15.4918L0.363027 10.9251C0.23467 10.7967 0.178433 10.613 0.212776 10.4348C0.247549 10.2567 0.368179 10.1068 0.535172 10.0356L8.73287 6.53515C9.01019 6.41667 9.33173 6.54546 9.45021 6.82321C9.5687 7.10096 9.43991 7.42249 9.16216 7.54098L1.70842 10.7237L5.38399 14.3993L15.9415 7.2701C16.1617 7.12156 16.4566 7.15247 16.6412 7.3435C16.8254 7.53454 16.846 7.83032 16.6897 8.04496L9.2536 18.2689L13.4568 22.4721L22.2121 1.96838Z" fill="white"/>
</svg>
